<svg xmlns="http://www.w3.org/2000/svg" id="Layer_1" data-name="Layer 1" viewBox="0 0 1000 267.09"><defs><linearGradient id="linear-gradient" x1="188.06" x2="29.58" y1="257.55" y2="-16.95" gradientUnits="userSpaceOnUse"><stop offset="0" stop-color="#5631fa"/><stop offset="1" stop-color="#3ac8f8"/></linearGradient><style>.cls-2{fill:#090f21}</style></defs><path d="M354.04 223.35c0-14.7 12-26.21 26.88-26.21 6.67 0 12.43 2.33 16.23 4.96v7.41c-4.04-3.92-10.16-6.49-16.29-6.49-11.57 0-20.27 9-20.27 20.33s8.7 20.33 20.27 20.33c6.25 0 12.25-2.63 16.29-6.49v7.47c-3.92 2.63-9.55 4.9-16.29 4.9-14.82 0-26.82-11.51-26.82-26.21ZM438.43 223.35c0-14.45 11.94-26.21 26.33-26.21s26.39 11.76 26.39 26.21-11.94 26.21-26.39 26.21-26.33-11.7-26.33-26.21Zm46.17 0c0-11.39-8.7-20.33-19.84-20.33s-19.78 8.94-19.78 20.33 8.7 20.39 19.78 20.39 19.84-8.94 19.84-20.39ZM532.56 248.58l7.35-51.86 20.39 40.41 20.27-40.41 7.35 51.86h-6.61l-4.23-32.7-16.9 33.92-16.78-33.92-4.29 32.7h-6.55ZM630.17 248.58l7.35-51.86 20.39 40.41 20.27-40.41 7.35 51.86h-6.61l-4.22-32.7-16.9 33.92-16.78-33.92-4.29 32.7h-6.55ZM730.3 248.58v-50.46h30.06v5.82h-23.64v16.04h19.78v5.76h-19.78v17.02h24.49v5.82h-30.92ZM841.33 248.58h-8.14l-17.7-19.66h-3.92v19.66h-6.37v-50.46h13.96c11.08 0 17.94 6.8 17.94 15.43 0 7.53-5.51 13.59-14.14 15.06l18.37 19.96Zm-29.76-44.82v19.59h7.53c7.47 0 11.51-4.53 11.51-9.8s-3.98-9.8-11.51-9.8h-7.53ZM880.22 223.35c0-14.7 12-26.21 26.88-26.21 6.67 0 12.43 2.33 16.23 4.96v7.41c-4.04-3.92-10.16-6.49-16.29-6.49-11.57 0-20.27 9-20.27 20.33s8.7 20.33 20.27 20.33c6.25 0 12.25-2.63 16.29-6.49v7.47c-3.92 2.63-9.55 4.9-16.29 4.9-14.82 0-26.82-11.51-26.82-26.21ZM969.08 248.58v-50.46h30.06v5.82H975.5v16.04h19.78v5.76H975.5v17.02h24.49v5.82h-30.92ZM354.04 158.98V23.53h43.23c45.86 0 73.97 31.07 73.97 67.72s-28.11 67.72-73.97 67.72h-43.23Zm24.33-21.86h18.9c31.07 0 48.98-20.05 48.98-45.86S428.5 45.4 397.27 45.4h-18.9v91.72ZM489.99 158.98v-88.6h22.68v14.46c2.96-7.56 11.83-16.77 26.3-16.77 3.12 0 6.08.49 7.56.82V91.9c-1.97-.49-4.77-.99-7.56-.99-13.97 0-25.31 9.53-25.31 29.75v38.3h-23.67ZM549.82 114.6c0-26.79 19.56-46.52 44.05-46.52 10.52 0 21.2 5.42 27.12 12.99V70.39h22.35v88.6h-22.35v-10.68c-5.92 7.56-16.6 12.82-27.12 12.82-24.49 0-44.05-19.72-44.05-46.52Zm69.86 0c0-13.64-9.53-25.15-22.68-25.15s-22.68 11.34-22.68 25.15 9.37 25.31 22.68 25.31 22.68-11.67 22.68-25.31ZM675.9 158.98V90.11h-18.25V70.39h18.25V53.13c0-23.83 13.48-35.83 36-35.83 3.78 0 7.56.33 10.68 1.31v21.04c-2.96-.82-6.08-1.31-9.2-1.31-9.04 0-13.81 4.11-13.81 13.81V70.4h22.68v19.72h-22.68v68.87H675.9Z" class="cls-2"/><path d="M748.72 129.06V90.1h-50.53V70.38h50.53V48.52h23.51v21.86h24V90.1h-24v37.31c0 6.9 3.29 11.18 10.85 11.18 4.93 0 9.53-.82 12.99-1.48v21.37c-4.27 1.15-8.71 2.3-16.44 2.3-17.92 0-30.9-11.51-30.9-31.72ZM893.21 122.49h-65.59c2.3 10.52 10.03 18.08 26.14 18.08 11.18 0 19.89-2.63 32.55-8.38v21.04c-4.27 3.29-17.75 7.89-33.04 7.89-32.05 0-49.64-20.71-49.64-46.52s17.92-46.68 46.02-46.68c21.2 0 44.22 13.81 44.22 44.38 0 3.29-.33 7.23-.66 10.19Zm-23.34-17.26c-.66-7.4-6.9-16.93-20.55-16.93-11.34 0-18.57 7.07-21.2 16.93h41.75ZM904.89 114.6c0-26.79 19.56-46.52 44.05-46.52 9.86 0 20.05 4.77 26.63 12.16-.49-8.22-.66-17.09-.66-27.45V17.62h23.51v141.36h-22.35V148.3c-5.92 7.56-16.6 12.82-27.12 12.82-24.49 0-44.05-19.72-44.05-46.52Zm69.86 0c0-13.64-9.53-25.15-22.68-25.15s-22.68 11.34-22.68 25.15 9.37 25.31 22.68 25.31 22.68-11.67 22.68-25.31Z" class="cls-2"/><path d="M84.03 267.09c-4.07 0-7.89-1.58-10.77-4.46-5.94-5.94-5.94-15.6 0-21.54l75.73-75.73c2.88-2.88 6.7-4.46 10.77-4.46s7.9 1.58 10.77 4.46c5.94 5.94 5.94 15.6 0 21.54l-55.22 55.22 15.94-.68c64.6-2.76 108.01-46.12 108.01-107.9S193.17 25.5 124.57 25.5h-93.6v82.02l30.09-30.09c2.88-2.88 6.7-4.46 10.77-4.46s7.9 1.58 10.77 4.46c5.94 5.94 5.94 15.6 0 21.54l-56.3 56.3c-2.88 2.88-6.7 4.46-10.77 4.46s-7.89-1.58-10.77-4.46c-5.04-5.03-5.02-15.28-4.58-18.8l.05-.38V0h124.34c43.69 0 81.02 13.77 107.94 39.83 25.08 24.27 38.89 57.55 38.89 93.71s-13.81 69.61-38.88 93.84c-26.88 25.97-64.21 39.7-107.95 39.7H84.03Zm-68.58-19.34c-4.07 0-7.89-1.58-10.77-4.46-5.94-5.94-5.94-15.6 0-21.54L149.01 77.4c2.88-2.88 6.7-4.46 10.77-4.46s7.9 1.58 10.77 4.46c5.94 5.94 5.94 15.6 0 21.54L26.22 243.28c-2.88 2.88-6.7 4.46-10.77 4.46Z" style="fill:url(#linear-gradient)"/></svg>